<svg width="271" height="78" viewBox="0 0 271 78" fill="none" xmlns="http://www.w3.org/2000/svg">
<g clip-path="url(#clip0_127_511)">
<path opacity="0.949" fill-rule="evenodd" clip-rule="evenodd" d="M30.9397 -0.0866699C42.3636 -0.0866699 53.7875 -0.0866699 65.2114 -0.0866699C65.1964 0.445144 65.0378 0.965145 64.7354 1.47333C63.043 4.01556 61.3504 6.55777 59.6581 9.1C58.4982 10.8491 58.0222 12.6402 58.2301 14.4733C61.1048 13.4969 62.9031 13.9014 63.6247 15.6867C63.3245 16.7094 62.2139 17.2294 60.2927 17.2467C58.4947 17.1032 57.2254 16.5832 56.4848 15.6867C55.8032 12.9564 56.0148 10.2409 57.1194 7.54C58.5598 4.88389 56.8145 3.72833 51.8835 4.07333C51.8835 10.9489 51.8835 17.8244 51.8835 24.7C49.3528 25.9083 46.8141 27.1216 44.2676 28.34C44.2676 20.251 44.2676 12.1622 44.2676 4.07333C39.3366 3.72833 37.5913 4.88389 39.0316 7.54C39.9912 10.001 40.3086 12.4854 39.9836 14.9933C39.0919 16.9853 36.9236 17.5919 33.4783 16.8133C32.1659 15.8922 32.2718 15.0255 33.7957 14.2133C35.25 13.8446 36.6253 13.9313 37.921 14.4733C38.1288 12.6402 37.6528 10.8491 36.493 9.1C35.1802 7.122 33.8052 5.15756 32.3677 3.20666C31.6608 2.13584 31.1848 1.03806 30.9397 -0.0866699Z" fill="#CEA475"/>
<path opacity="0.949" fill-rule="evenodd" clip-rule="evenodd" d="M80.4432 33.3667C79.3519 33.3239 78.2942 33.3816 77.2699 33.54C72.2977 33.8738 68.9657 32.7761 67.274 30.2467C66.9183 28.8097 66.7069 27.3652 66.6393 25.9133C66.375 25.6244 66.1104 25.3356 65.846 25.0467C68.3758 24.8737 70.9144 24.816 73.4619 24.8733C73.9532 24.929 74.1648 25.1023 74.0966 25.3933C73.0351 26.4869 72.8765 27.6423 73.6206 28.86C74.3346 29.8217 75.6569 30.2838 77.5872 30.2467C79.0393 30.2039 79.8857 29.7993 80.1259 29.0333C80.3696 28.9011 80.5283 28.7277 80.6019 28.5133C80.8659 27.0078 80.8129 25.5055 80.4432 24.0067C78.1476 23.7909 75.9263 23.4442 73.7793 22.9667C73.6707 22.8214 73.4594 22.7635 73.1446 22.7933C68.7131 21.0137 66.5448 18.5871 66.6393 15.5133C66.5337 13.4911 66.4277 11.4689 66.322 9.44667C66.0577 9.15777 65.793 8.8689 65.5287 8.58C68.3847 8.3489 71.2406 8.3489 74.0966 8.58C73.1916 9.49025 72.7683 10.4725 72.8273 11.5267C72.7257 13.4899 72.8844 15.4544 73.3033 17.42C74.585 19.3159 77.0709 20.3559 80.7605 20.54C80.8135 16.784 80.7605 13.0284 80.6019 9.27334C80.3775 8.99937 80.1132 8.73937 79.8085 8.49334C82.6702 8.34912 85.5262 8.37802 88.3765 8.58C88.1121 8.8689 87.8475 9.15777 87.5831 9.44667C87.5676 16.2689 87.3562 23.0868 86.9485 29.9C86.2945 31.9039 84.1261 33.0595 80.4432 33.3667ZM74.0966 25.3933C75.0134 25.871 75.701 26.4488 76.1592 27.1267C76.778 28.154 77.254 29.194 77.5872 30.2467C75.6569 30.2838 74.3346 29.8217 73.6206 28.86C72.8765 27.6423 73.0351 26.4869 74.0966 25.3933Z" fill="#CEA475"/>
<path opacity="0.959" fill-rule="evenodd" clip-rule="evenodd" d="M105.195 8.40667C108.37 8.37781 111.543 8.4067 114.715 8.49333C113.948 9.14157 113.578 9.86379 113.604 10.66C113.393 17.4777 113.393 24.2956 113.604 31.1133C113.714 31.9443 113.979 32.7531 114.398 33.54C111.647 33.54 108.897 33.54 106.147 33.54C106.321 33.1238 106.585 32.7193 106.94 32.3267C107.152 25.8556 107.152 19.3844 106.94 12.9133C105.336 14.2033 104.067 15.59 103.132 17.0733C100.786 21.2564 99.3583 25.532 98.8483 29.9C98.9883 31.1506 99.4113 32.3639 100.118 33.54C97.3674 33.54 94.6174 33.54 91.8671 33.54C91.948 33.1039 92.2126 32.6993 92.6604 32.3267C92.0667 25.2562 94.6053 18.5541 100.276 12.22C101.749 10.8696 103.389 9.59854 105.195 8.40667Z" fill="#CEA575"/>
<path opacity="0.949" fill-rule="evenodd" clip-rule="evenodd" d="M121.696 8.40667C124.554 8.37783 127.41 8.4067 130.264 8.49333C130.001 8.80813 129.736 9.1259 129.471 9.44667C129.259 11.5267 129.259 13.6067 129.471 15.6867C131.603 13.0948 134.406 10.7548 137.88 8.66667C140.286 8.3608 142.719 8.33191 145.179 8.58C145.003 8.89779 144.739 9.18668 144.385 9.44667C144.174 17.1311 144.174 24.8156 144.385 32.5C144.743 32.8198 144.902 33.1665 144.861 33.54C142.217 33.54 139.572 33.54 136.928 33.54C136.887 33.1665 137.046 32.8198 137.404 32.5C137.616 26.6067 137.616 20.7133 137.404 14.82C131.206 20.5679 128.721 26.7502 129.947 33.3667C127.196 33.5631 124.446 33.5631 121.696 33.3667C122.048 33.0399 122.313 32.6933 122.489 32.3267C122.701 24.7 122.701 17.0733 122.489 9.44667C122.133 9.11616 121.869 8.76949 121.696 8.40667Z" fill="#CEA575"/>
<path opacity="0.946" fill-rule="evenodd" clip-rule="evenodd" d="M151.208 8.40667C154.066 8.37783 156.922 8.4067 159.776 8.49333C159.471 8.73936 159.207 8.99936 158.982 9.27333C158.824 11.6415 158.771 14.0104 158.824 16.38C160.833 16.38 162.843 16.38 164.853 16.38C164.906 14.0104 164.853 11.6415 164.694 9.27333C164.374 9.00902 164.216 8.72012 164.218 8.40667C166.969 8.40667 169.719 8.40667 172.469 8.40667C172.435 8.80246 172.17 9.14912 171.676 9.44667C171.464 17.0733 171.464 24.7 171.676 32.3267C172.123 32.6993 172.388 33.1039 172.469 33.54C169.719 33.54 166.969 33.54 164.218 33.54C164.7 32.4662 164.964 31.3685 165.012 30.2467C165.249 26.6618 165.196 23.0797 164.853 19.5C162.843 19.5 160.833 19.5 158.824 19.5C158.864 21.6975 158.758 23.8931 158.506 26.0867C158.703 28.2235 158.862 30.3614 158.982 32.5C159.248 32.8208 159.513 33.1386 159.776 33.4533C156.914 33.5975 154.058 33.5686 151.208 33.3667C151.56 33.0399 151.824 32.6933 152.001 32.3267C152.213 24.7 152.213 17.0733 152.001 9.44667C151.645 9.11616 151.381 8.76949 151.208 8.40667Z" fill="#CEA575"/>
<path opacity="0.955" fill-rule="evenodd" clip-rule="evenodd" d="M186.114 8.40667C188.444 8.37784 190.771 8.40672 193.095 8.49333C196.712 8.96634 198.774 10.2086 199.283 12.22C199.589 13.8911 199.747 15.5667 199.759 17.2467C199.386 20.1649 199.386 23.0828 199.759 26C200.014 28.0987 199.326 30.0921 197.697 31.98C196.303 32.8318 194.557 33.3228 192.461 33.4533C189.052 33.7132 185.773 33.4819 182.624 32.76C180.545 31.7836 179.435 30.5415 179.292 29.0333C178.99 23.2504 179.096 17.4725 179.609 11.7C180.623 9.90316 182.792 8.80537 186.114 8.40667ZM188.97 11.5267C190.633 11.4329 191.849 11.7795 192.619 12.5667C193.119 14.4875 193.383 16.4231 193.413 18.3733C193.209 21.8683 193.05 25.3639 192.937 28.86C191.97 30.1486 190.225 30.5819 187.701 30.16C186.759 29.796 186.178 29.3048 185.956 28.6867C185.744 23.4867 185.744 18.2867 185.956 13.0867C186.314 12.1681 187.319 11.6481 188.97 11.5267Z" fill="#CEA575"/>
<path opacity="0.96" fill-rule="evenodd" clip-rule="evenodd" d="M205.789 8.40667C211.079 8.37779 216.368 8.40669 221.655 8.49334C224.91 8.73897 226.496 9.75009 226.415 11.5267C225.993 13.5753 224.777 15.482 222.766 17.2467C221.957 17.8126 221.269 18.4193 220.703 19.0667C224.302 21.7873 227.528 24.6473 230.382 27.6467C231.809 29.2765 231.809 30.8942 230.382 32.5C229.665 32.8345 228.872 33.0945 228.002 33.28C220.608 33.527 213.204 33.6137 205.789 33.54C205.87 33.1039 206.134 32.6993 206.582 32.3267C206.794 24.7577 206.794 17.1889 206.582 9.62C206.227 9.22733 205.963 8.82289 205.789 8.40667ZM213.722 11.5267C215.467 11.4518 217.159 11.5674 218.799 11.8733C219.908 12.6048 220.067 13.4136 219.275 14.3C218.709 15.265 217.969 16.1895 217.054 17.0733C215.547 16.3665 214.278 15.5576 213.246 14.6467C212.913 13.5574 213.071 12.5174 213.722 11.5267ZM213.087 19.3267C216.606 21.8598 219.832 24.5175 222.766 27.3C223.263 27.8834 223.633 28.4901 223.877 29.12C223.879 29.4341 223.667 29.6941 223.242 29.9C221.378 30.1662 219.475 30.2817 217.53 30.2467C216.155 30.1889 214.78 30.1311 213.405 30.0733C213.091 26.499 212.985 22.9169 213.087 19.3267Z" fill="#CEA575"/>
<path opacity="0.943" fill-rule="evenodd" clip-rule="evenodd" d="M230.858 8.40666C236.362 8.34898 241.862 8.40675 247.359 8.58C247.174 8.84027 246.91 9.07138 246.566 9.27333C246.354 11.4111 246.354 13.5489 246.566 15.6867C251.142 19.4711 255.478 23.3421 259.576 27.3C261.033 28.7905 261.456 30.3505 260.846 31.98C259.834 32.9359 258.3 33.427 256.244 33.4533C250.424 33.5977 244.606 33.5688 238.791 33.3667C239.055 33.0777 239.32 32.7889 239.584 32.5C239.796 25.5667 239.796 18.6333 239.584 11.7C238.154 11.3965 237.097 11.6277 236.411 12.3933C236.495 14.2173 236.759 16.0373 237.204 17.8533C237.524 19.2407 236.678 20.3384 234.666 21.1467C230.678 21.5692 229.25 20.7315 230.382 18.6333C231.904 17.9468 233.438 17.9468 234.983 18.6333C235.392 17.5729 235.233 16.5329 234.507 15.5133C232.867 13.2024 231.65 10.8335 230.858 8.40666ZM246.407 21.9267C249.472 24.2044 252.01 26.6599 254.023 29.2933C253.679 29.77 253.044 30.0589 252.119 30.16C250.218 30.2465 248.314 30.2754 246.407 30.2467C246.407 27.4733 246.407 24.7 246.407 21.9267Z" fill="#CEA575"/>
<path opacity="0.899" fill-rule="evenodd" clip-rule="evenodd" d="M73.1446 22.7933C73.2531 22.9386 73.4644 22.9965 73.7792 22.9667C77.2045 24.556 79.3198 26.5782 80.1258 29.0333C79.8856 29.7993 79.0393 30.2039 77.5872 30.2467C77.254 29.194 76.778 28.154 76.1592 27.1267C75.701 26.4488 75.0133 25.871 74.0966 25.3933C74.1648 25.1023 73.9531 24.929 73.4619 24.8733C70.7865 23.525 67.6132 23.0337 63.942 23.4C59.3245 23.9385 55.3049 25.0652 51.8835 26.78C51.3265 26.8791 50.7976 27.0237 50.2968 27.2133C48.0983 28.3267 46.0884 29.511 44.2675 30.7667C42.361 31.7798 40.6157 32.8775 39.0316 34.06C37.5211 37.5913 35.6171 41.058 33.3196 44.46C26.8585 53.3097 19.4542 61.9185 11.1065 70.2867C8.43248 72.9212 5.52364 75.4634 2.37995 77.9133C1.74529 77.9133 1.11063 77.9133 0.475969 77.9133C0.370193 77.74 0.158639 77.6244 -0.158691 77.5667C-0.158691 76.9889 -0.158691 76.4111 -0.158691 75.8333C5.97362 62.1118 16.0753 49.3428 30.1463 37.5267C32.3677 35.9089 34.589 34.2911 36.8103 32.6733C37.6077 30.8899 37.7134 29.0989 37.1276 27.3C36.1969 25.5781 34.1342 24.5093 30.9397 24.0933C27.3257 23.778 23.9409 24.1247 20.7851 25.1333C19.3274 25.748 17.7937 26.2967 16.1838 26.78C15.1979 26.5554 14.8806 26.151 15.2318 25.5667C19.9509 23.1861 25.5042 22.2328 31.8917 22.7067C36.3054 23.2239 38.8967 24.6972 39.6662 27.1267C40.1089 28.3462 40.2146 29.5596 39.9836 30.7667C41.2538 29.8707 42.6818 29.0618 44.2675 28.34C46.8141 27.1216 49.3527 25.9083 51.8835 24.7C55.3427 23.3801 59.1506 22.4846 63.3073 22.0133C66.7456 21.7374 70.0246 21.9974 73.1446 22.7933ZM74.0966 25.3933C75.0133 25.871 75.701 26.4488 76.1592 27.1267C76.778 28.154 77.254 29.194 77.5872 30.2467C75.6569 30.2838 74.3346 29.8217 73.6206 28.86C72.8764 27.6423 73.0351 26.4869 74.0966 25.3933ZM34.4303 37.7C31.2898 43.337 27.4289 48.8257 22.8477 54.1667C17.1768 61.1142 10.7773 67.8165 3.64927 74.2733C9.81462 61.9346 19.1759 50.379 31.733 39.6067C32.4851 38.8965 33.3841 38.2609 34.4303 37.7Z" fill="#7FC1C1"/>
<path opacity="0.927" fill-rule="evenodd" clip-rule="evenodd" d="M51.8835 26.78C51.8305 28.6875 51.8835 30.5942 52.0421 32.5C52.5368 32.7976 52.8012 33.1443 52.8355 33.54C49.6622 33.54 46.4889 33.54 43.3156 33.54C43.3965 33.1039 43.6611 32.6993 44.1089 32.3267C44.2669 31.8098 44.3199 31.2898 44.2675 30.7667C46.0884 29.511 48.0984 28.3267 50.2968 27.2133C50.7976 27.0237 51.3266 26.8791 51.8835 26.78Z" fill="#CEA475"/>
<path opacity="0.904" fill-rule="evenodd" clip-rule="evenodd" d="M80.4432 33.3667C79.4998 38.2966 76.0091 42.601 69.9713 46.28C75.2139 45.6919 80.3442 44.854 85.3618 43.7667C86.5483 43.8369 86.9716 44.1835 86.6311 44.8067C84.1448 45.4906 81.5532 46.0396 78.8565 46.4533C74.7455 47.1158 70.6202 47.7514 66.4806 48.36C60.1604 51.5887 52.7558 53.7266 44.2675 54.7733C42.1173 54.9328 40.0017 54.8749 37.9209 54.6C37.1305 54.0855 37.0778 53.5366 37.7623 52.9533C39.6253 51.7937 41.8996 50.9558 44.5849 50.44C50.7487 49.266 56.9896 48.226 63.3073 47.32C70.8795 43.6152 75.5338 39.0218 77.2699 33.54C78.2942 33.3816 79.3519 33.3239 80.4432 33.3667ZM56.9607 49.66C57.2946 49.6342 57.6119 49.6629 57.9127 49.7467C52.732 51.8844 46.9141 53.0977 40.4596 53.3867C42.169 52.6306 44.073 52.0529 46.1715 51.6533C49.7713 50.9323 53.3679 50.2679 56.9607 49.66Z" fill="#7FC1C1"/>
<path opacity="0.899" fill-rule="evenodd" clip-rule="evenodd" d="M270.841 49.66C270.841 49.8333 270.841 50.0067 270.841 50.18C267.091 52.3179 262.595 53.8202 257.355 54.6867C255.779 54.6626 254.721 54.258 254.182 53.4733C254.011 52.7899 254.169 52.1255 254.658 51.48C254.552 51.3933 254.446 51.3067 254.34 51.22C252.39 51.9988 250.221 52.4609 247.835 52.6067C245.887 52.7387 244.723 52.2765 244.344 51.22C243.657 51.9711 242.969 52.7223 242.282 53.4733C241.782 53.6694 241.253 53.6983 240.695 53.56C240.345 53.1438 240.292 52.7105 240.536 52.26C241.052 51.8166 241.37 51.3543 241.488 50.8733C238.474 52.6339 234.825 53.8183 230.54 54.4267C227.884 54.9309 226.403 54.4397 226.098 52.9533C222.922 54.4365 219.431 54.7544 215.626 53.9067C214.674 53.1267 214.303 52.2889 214.515 51.3933C211.251 52.8481 207.602 53.9171 203.567 54.6C201.867 54.6622 200.174 54.6622 198.49 54.6C196.25 55.6085 193.87 55.753 191.35 55.0333C190.384 53.9732 190.86 53.1932 192.778 52.6933C194.532 52.5699 196.278 52.5987 198.014 52.78C198.942 52.7289 199.682 52.4976 200.235 52.0867C201.901 51.0482 203.117 49.8637 203.885 48.5333C203.702 48.2362 203.332 48.034 202.774 47.9267C200.39 48.2168 198.221 48.7656 196.269 49.5733C194.09 50.7054 192.028 51.8898 190.081 53.1267C186.516 58.0615 182.602 62.9148 178.34 67.6867C177.452 68.5123 176.447 69.2923 175.325 70.0267C174.699 70.1125 174.064 70.1414 173.421 70.1133C175.394 63.2209 180.313 57.0386 188.177 51.5667C188.488 51.3484 188.594 51.1174 188.494 50.8733C184.637 53.405 179.718 54.474 173.738 54.08C170.924 55.4317 168.015 55.5183 165.012 54.34C164.159 53.4563 163.842 52.532 164.06 51.5667C160.071 53.7105 155.364 55.1548 149.939 55.9C148.284 55.9716 147.438 55.5672 147.4 54.6867C147.43 54.2667 147.588 53.8623 147.876 53.4733C149.517 51.9404 150.945 50.3514 152.16 48.7067C150.833 48.6008 149.563 48.7164 148.352 49.0533C143.554 50.5752 139.428 52.5398 135.976 54.9467C134.39 55.1772 133.703 54.8593 133.913 53.9933C135.183 52.7223 136.452 51.4511 137.721 50.18C138.326 49.6389 138.537 49.0611 138.356 48.4467C136.013 49.0143 133.845 49.7366 131.851 50.6133C129.197 52.0052 126.658 53.4496 124.235 54.9467C123.266 55.1325 122.631 54.9591 122.331 54.4267C122.978 53.5794 123.56 52.7417 124.076 51.9133C120.403 53.9744 116.013 55.3901 110.907 56.16C108.897 56.2756 106.887 56.2756 104.878 56.16C101.673 55.6384 100.033 54.4541 99.959 52.6067C95.7097 54.9371 90.5797 56.2659 84.5685 56.5933C79.6959 56.675 77.1043 55.4039 76.7939 52.78C76.0971 53.235 75.1978 53.4083 74.0966 53.3C73.745 52.9195 73.798 52.5729 74.2553 52.26C75.2869 51.5802 76.5033 51.0314 77.9046 50.6133C80.0869 48.7278 83.0485 47.3411 86.7898 46.4533C88.8499 46.0633 90.8596 46.1211 92.8191 46.6267C94.2931 47.7379 93.8701 48.6046 91.5498 49.2267C88.2384 50.0412 84.9065 50.8212 81.5539 51.5667C79.7327 53.7373 81.002 54.8929 85.3618 55.0333C89.6026 54.7269 93.3579 53.8313 96.6271 52.3467C100.435 50.6133 104.243 48.88 108.051 47.1467C111.197 46.0105 114.37 45.9527 117.571 46.9733C119.05 47.8391 118.786 48.4458 116.778 48.7933C115.597 48.342 114.275 48.0532 112.811 47.9267C108.528 48.6188 105.62 50.1211 104.084 52.4333C103.684 53.3544 104.266 54.0188 105.83 54.4267C107.494 54.6877 109.187 54.7454 110.907 54.6C114.982 53.9497 118.579 52.8519 121.696 51.3067C124.349 49.8576 126.994 48.413 129.629 46.9733C130.696 46.7492 131.331 46.9225 131.533 47.4933C130.993 48.2231 130.517 48.9453 130.105 49.66C132.411 48.3227 135.214 47.5138 138.515 47.2333C139.311 47.1966 139.999 47.3122 140.577 47.58C141.105 48.264 141.211 48.9573 140.895 49.66C144.005 48.1028 147.654 47.1784 151.843 46.8867C154.065 46.7151 155.229 47.2351 155.333 48.4467C155.166 48.9807 154.902 49.5007 154.54 50.0067C153.245 51.3637 151.87 52.6926 150.415 53.9933C150.177 54.1901 150.23 54.3634 150.573 54.5133C157.105 52.9982 162.711 50.7737 167.392 47.84C167.949 47.805 168.478 47.7183 168.978 47.58C171.217 45.4657 174.497 44.6857 178.816 45.24C180.188 45.8706 180.823 46.6795 180.72 47.6667C180.682 48.4134 180.417 49.1357 179.926 49.8333C179.001 50.7863 177.997 51.7109 176.912 52.6067C179.296 52.7408 181.411 52.3654 183.258 51.48C186.503 50.0259 189.359 48.3792 191.826 46.54C192.461 46.3089 193.095 46.3089 193.73 46.54C193.885 46.704 193.99 46.8773 194.047 47.06C193.673 47.6403 193.409 48.2182 193.254 48.7933C195.987 47.3971 199.213 46.5305 202.933 46.1933C206.22 46.4871 207.331 47.5271 206.265 49.3133C205.349 50.7367 203.921 51.979 201.981 53.04C204.389 52.9845 206.611 52.5801 208.645 51.8267C212.47 50.257 216.384 48.7549 220.386 47.32C224.129 46.2953 228.043 46.0065 232.127 46.4533C232.326 46.5833 232.484 46.7279 232.603 46.8867C233.691 46.5771 234.484 46.7217 234.983 47.32C233.58 48.7219 232.046 50.0796 230.382 51.3933C229.736 51.9239 229.366 52.5018 229.271 53.1267C231.564 52.8762 233.68 52.3851 235.618 51.6533C239.923 49.8226 243.943 47.8003 247.676 45.5867C248.626 45.5234 249.261 45.7546 249.58 46.28C247.816 47.7263 247.023 49.3151 247.2 51.0467C247.412 51.1623 247.623 51.2777 247.835 51.3933C253.195 50.3143 257.426 48.4654 260.528 45.8467C261.296 45.2856 262.142 45.2279 263.067 45.6733C263.278 45.9623 263.278 46.2511 263.067 46.54C260.603 48.5385 258.646 50.6763 257.196 52.9533C259.03 52.8871 260.722 52.5694 262.273 52C264.662 51.2609 266.884 50.3942 268.937 49.4C269.68 49.2703 270.315 49.357 270.841 49.66ZM175.325 46.54C177.418 46.571 178.212 47.1487 177.705 48.2733C176.87 49.8534 175.336 51.1824 173.104 52.26C171.397 51.7291 170.445 50.9203 170.248 49.8333C170.832 48.1882 172.525 47.0903 175.325 46.54ZM229.906 47.58C230.445 47.5523 230.974 47.581 231.492 47.6667C228.976 49.9668 225.485 51.6422 221.021 52.6933C218.25 53.0294 217.245 52.4805 218.006 51.0467C221.067 48.954 225.033 47.7986 229.906 47.58ZM85.2032 49.14C86.614 48.2349 88.4123 47.8015 90.5978 47.84C88.8639 48.3718 87.0656 48.8051 85.2032 49.14ZM167.392 50.3533C167.952 50.9657 168.534 51.6013 169.137 52.26C169.731 52.6429 170.419 52.9606 171.2 53.2133C170.303 53.4947 169.351 53.6969 168.344 53.82C167.019 53.5614 166.384 53.0414 166.44 52.26C166.61 51.5975 166.928 50.9619 167.392 50.3533ZM180.402 61.9667C180.433 62.3225 180.222 62.6115 179.768 62.8333C179.736 62.4775 179.948 62.1885 180.402 61.9667ZM179.45 63.18C179.385 63.6551 179.067 64.0595 178.498 64.3933C178.564 63.9182 178.881 63.5138 179.45 63.18Z" fill="#7FC1C1"/>
</g>
<defs>
<clipPath id="clip0_127_511">
<rect width="271" height="78" fill="white"/>
</clipPath>
</defs>
</svg>
